<svg height="180" width="220" style="max-height: 180px" version="1.1" id="svg1" viewBox="0 0 220 180" xmlns="http://www.w3.org/2000/svg">
	<g id="g1">
		<g transform="translate(-146,-110)" clip-path="url(#clipPath6)" id="g2">
			<g id="g5">
				<path id="path5" clip-path="url(#clipPath4)" transform="matrix(1.1595064,0,0,1.1595064,141.00806,282.52982)" aria-label="N" style="fill:#503d38;fill-opacity:1;fill-rule:nonzero;stroke:none" d="m 136.69588,-142.62411 c 0.1415,0 0.28299,0.0741 0.41775,0.21561 0.13475,0.13475 0.20213,0.26951 0.20213,0.40426 0,0.40427 -0.20887,0.6064 -0.61988,0.6064 -2.71532,0 -5.02301,0.9534 -6.92644,2.85682 -1.90679,1.9068 -2.85681,4.21785 -2.85681,6.93992 V 0.0012311 c 0,0.40426684 -0.27625,0.60640027 -0.82201,0.60640027 h -3.05896 c -0.13475,0 -0.26951,-0.0673778 -0.40426,-0.20213343 L 20.603921,-140.57583 v 130.173928 c 0,2.7220631 0.950027,5.0364907 2.856819,6.9399138 1.903423,1.9067919 4.217851,2.85681903 6.939914,2.85681903 0.404267,0 0.606401,0.20213343 0.606401,0.60640027 0,0.40426684 -0.202134,0.60640027 -0.606401,0.60640027 H 9.3787786 c -0.4042669,0 -0.6064003,-0.20213343 -0.6064003,-0.60640027 0,-0.40426684 0.2021334,-0.60640027 0.6064003,-0.60640027 2.7220634,0 5.0331224,-0.95002713 6.9399144,-2.85681903 1.903423,-1.9034231 2.856819,-4.2178507 2.856819,-6.9399138 V -131.6011 c 0,-2.72207 -0.953396,-5.03312 -2.856819,-6.93992 -1.906792,-1.90342 -4.217851,-2.85682 -6.9399144,-2.85682 -0.4042669,0 -0.6064003,-0.20213 -0.6064003,-0.6064 0,-0.411 0.2021334,-0.61987 0.6064003,-0.61987 H 19.997521 c 0,0 0.06738,0 0.202133,0 0,0 0.06738,0 0.202134,0 h 8.570457 c 0.269511,0 0.471645,0.0741 0.6064,0.21561 L 125.48422,-9.7955021 V -131.6011 c 0,-2.72207 -0.9534,-5.03312 -2.85682,-6.93992 -1.90679,-1.90342 -4.21785,-2.85682 -6.93992,-2.85682 -0.40426,0 -0.6064,-0.20213 -0.6064,-0.6064 0,-0.411 0.20214,-0.61987 0.6064,-0.61987 z m 0,0"/>
			</g>
		</g>
		<g transform="translate(-146,-110)" id="g6">
			<g id="g7">
				<path transform="translate(204.95133,281.7259)" aria-label="A" style="fill:#b5764b;fill-opacity:1;fill-rule:nonzero;stroke:none" d="m 155.20493,-0.70245799 c 0.15625,0 0.3125,0.078125 0.46875,0.23437501 0.16406,0.15625001 0.25,0.31250001 0.25,0.46875001861 0,0.46875002139 -0.24219,0.70312503139 -0.71875,0.70312503139 H 122.3143 c -0.46875,0 -0.70312,-0.23437501 -0.70312,-0.70312503139 0,-0.46875001861 0.23437,-0.70312502861 0.70312,-0.70312502861 2.6875,0.15625001 4.81641,-0.86718751 6.39063,-3.07812511 1.58203,-2.5312501 1.74218,-5.2109377 0.48437,-8.0468749 L 116.64243,-44.48371 c -0.15625,0 -0.23438,0 -0.23438,0 -1.74219,-4.570313 -4.82031,-7.882813 -9.23437,-9.9375 -4.57422,-2.050782 -9.148441,-2.207032 -13.718754,-0.46875 -5.992188,2.367187 -10.484376,6.386719 -13.484376,12.0625 -0.15625,0 -0.234375,0 -0.234375,0 -2.6875,4.898438 -6.554688,8.289063 -11.59375,10.171876 -2.6875,1.105468 -5.449219,1.65625 -8.281251,1.65625 -3.3125,0 -6.390625,-0.707032 -9.234375,-2.125 -5.835938,-2.519532 -9.855469,-6.781251 -12.0625,-12.781251 -1.261719,-2.832031 -1.812501,-5.828125 -1.656251,-8.984375 l -16.5625,43.062502 c -1.261719,2.8359372 -1.105469,5.5156248 0.46875,8.0468749 1.582031,2.2109376 3.710937,3.23437512 6.390625,3.07812511 0.476563,0 0.71875,0.23437501 0.71875,0.70312502861 0,0.63281252139 -0.242187,0.95312504139 -0.71875,0.95312504139 h -12.0625 c 0,0 -0.07813,0 -0.234375,0 H 2.8455471 c -0.4804688,0 -0.7187501,-0.32031252 -0.7187501,-0.95312504139 0,-0.46875001861 0.2382813,-0.70312502861 0.7187501,-0.70312502861 3.3125001,0 6.5039065,-1.14453131 9.5781249,-3.43750011 3.070313,-2.2890626 5.238282,-5.0078127 6.500001,-8.1562499 L 74.048675,-155.92121 c 0,0 0,-0.0781 0,-0.23438 l 3.796875,-9.9375 0.46875,-1.17187 c 0,-0.16407 0.07813,-0.32813 0.234375,-0.48438 0.15625,0 0.3125,0 0.46875,0 0.164063,0 0.164063,0 0,0 0.164063,0 0.25,0 0.25,0 0.15625,0 0.234375,0 0.234375,0 v 0.23438 c 0.15625,0 0.234375,0.0859 0.234375,0.25 l 28.625005,74.515623 c 2.36328,6.46875 1.73437,12.621094 -1.89063,18.453126 -2.36719,3.792969 -5.60156,6.554688 -9.703124,8.28125 -0.46875,0.167969 -0.703125,0.25 -0.703125,0.25 -2.53125,0.9375 -5.136719,1.40625 -7.8125,1.40625 -5.523438,0 -10.257813,-1.890625 -14.203126,-5.671875 -2.992188,-2.519531 -6.460938,-4.132813 -10.40625,-4.84375 -3.937501,-0.71875 -7.726563,-0.441406 -11.359376,0.828125 -5.523438,2.210938 -9.464844,5.996094 -11.828125,11.359375 -2.367188,5.355469 -2.523438,10.79297 -0.46875,16.312501 2.050781,5.523438 5.757812,9.464844 11.125,11.828126 5.351563,2.367187 10.789063,2.527343 16.312501,0.484375 4.894531,-1.894532 8.601563,-5.050782 11.125,-9.468751 0,0 0,-0.07813 0,-0.234375 3.15625,-6 7.890626,-10.179688 14.203126,-12.546875 7.09375,-2.675782 14.031249,-2.519532 20.812499,0.46875 6.9375,3 11.82813,7.96875 14.67188,14.90625 0,0 0.0781,0.164063 0.23437,0.484375 l 10.64063,27.906252 c 0,0.167968 0,0.25 0,0.25 1.26953,3.1484372 3.47656,5.8671873 6.625,8.1562499 3.15625,2.2929688 6.3125,3.43750011 9.46875,3.43750011 z M 74.767425,-153.54621 42.111174,-68.608711 c 2.6875,-3.15625 5.84375,-5.441406 9.46875,-6.859375 4.101563,-1.425781 8.203125,-1.78125 12.296876,-1.0625 4.101562,0.710937 7.8125,2.480469 11.125,5.3125 2.675781,2.6875 5.90625,4.386719 9.6875,5.09375 3.789063,0.710938 7.421876,0.355469 10.890626,-1.0625 0.164062,0 0.285156,-0.03516 0.359375,-0.109375 0.08203,-0.08203 0.125,-0.125 0.125,-0.125 2.832031,-1.269531 4.800779,-3.320312 5.906249,-6.15625 1.10156,-2.84375 1.17969,-5.601563 0.23438,-8.28125 0,-0.15625 -0.0781,-0.234375 -0.23438,-0.234375 z m 0,0" id="path7"/>
			</g>
		</g>
	</g>
</svg>